<?xml version="1.0" encoding="iso-8859-1"?>
<!-- Uploaded to: SVG Repo, www.svgrepo.com, Generator: SVG Repo Mixer Tools -->
<svg height="800px" width="800px" version="1.1" id="Capa_1" xmlns="http://www.w3.org/2000/svg" xmlns:xlink="http://www.w3.org/1999/xlink" 
	 viewBox="0 0 328.174 328.174" xml:space="preserve">
<g>
	<g>
		<path style="fill:#010002;" d="M184.536,303.703v-88.466c-8.659,0.625-17.226,0.838-25.379,0.838
			c-7.587,0-15.529-0.19-23.573-0.723v88.347c0,13.516,10.96,24.476,24.476,24.476C173.577,328.174,184.536,317.219,184.536,303.703
			z M148.356,300.054c0-6.636,5.379-12.009,12.009-12.009c6.636,0,12.009,5.379,12.009,12.009c0,6.636-5.379,12.009-12.009,12.009
			C153.735,312.063,148.356,306.689,148.356,300.054z"/>
		<path style="fill:#010002;" d="M45.068,134.489c2.132,43.48,30.557,65.53,90.517,69.859c7.403,0.533,15.197,0.848,23.573,0.848
			c9.045,0,17.47-0.332,25.379-0.957c58.747-4.634,86.595-26.7,88.706-69.751C273.242,134.489,45.068,134.489,45.068,134.489z"/>
		<path style="fill:#010002;" d="M269.576,0.41C216.79,14.177,162.753,2.852,108.944,1.096L96.608,53.729
			c0,0-7.136-33.412-11.759-52.618C74.488,1.476,64.143,2.325,53.83,4.033c-7.343,1.218-9.083,7.696-7.082,13.173v100.661h223.91
			V66.74c5.51-17.334,9.698-34.805,12.303-52.949C284.104,5.806,278.349-1.88,269.576,0.41z"/>
	</g>
</g>
</svg>